{"glyphs":{"0":{"ha":738,"x_min":56,"x_max":682,"o":"m 524 219 q 601 586 601 406 q 575 772 601 690 q 503 899 549 854 q 406 944 458 944 q 285 883 344 944 q 179 694 226 821 q 119 385 119 536 q 148 199 119 281 q 224 74 176 118 q 325 29 271 29 q 431 76 379 29 q 524 219 483 124 m 56 504 q 99 755 56 651 q 215 911 143 858 q 368 964 286 964 q 453 949 410 964 q 617 797 553 911 q 682 504 682 682 q 638 231 682 344 q 521 60 593 118 q 367 3 449 3 q 293 15 328 3 q 173 101 226 39 q 88 266 119 164 q 56 504 56 368 z "},"1":{"ha":339,"x_min":42,"x_max":297,"o":"m 125 0 q 158 143 158 36 l 158 829 q 108 829 151 829 q 42 836 65 829 l 42 847 q 153 890 96 856 q 253 972 211 924 l 264 972 l 264 143 q 297 0 264 32 l 125 0 z "},"2":{"ha":714,"x_min":42,"x_max":672,"o":"m 526 93 q 669 126 639 93 l 669 1 l 47 1 q 144 208 61 107 q 379 411 226 308 q 558 573 483 482 q 632 749 632 664 q 607 833 632 793 q 535 906 578 882 q 443 931 492 931 q 289 869 365 931 q 161 694 213 808 l 42 694 q 189 901 94 828 q 386 974 283 974 q 517 940 456 974 q 622 840 578 906 q 672 679 672 767 q 609 484 672 579 q 449 331 546 389 q 290 244 396 296 q 155 169 200 200 q 92 93 110 138 l 526 93 z "},"3":{"ha":701,"x_min":42,"x_max":660,"o":"m 396 567 q 593 467 526 544 q 660 289 660 389 q 622 144 660 213 q 515 34 585 75 q 357 -3 446 -7 q 198 24 257 1 q 96 86 139 47 l 96 308 l 104 308 q 177 148 133 215 q 269 46 221 81 q 360 10 318 11 q 485 37 433 8 q 564 115 538 65 q 590 224 590 164 q 551 367 590 297 q 434 481 511 436 q 251 525 357 525 q 203 522 236 525 l 203 531 l 344 568 q 465 647 425 590 q 506 775 506 704 q 467 901 506 847 q 368 956 428 956 q 256 892 313 956 q 161 694 200 828 l 42 694 q 118 842 64 781 q 242 933 172 903 q 383 964 313 964 q 544 916 488 964 q 600 797 600 868 q 547 664 600 728 q 396 567 493 600 z "},"4":{"ha":722,"x_min":42,"x_max":681,"o":"m 640 231 l 603 231 l 603 143 q 636 0 603 32 l 464 0 q 497 143 497 36 l 497 231 l 42 231 l 42 247 q 189 554 143 400 q 235 896 235 708 q 233 957 235 936 l 342 978 q 273 634 342 808 q 58 249 204 460 l 497 290 l 497 551 q 464 694 497 664 l 603 694 l 603 301 l 681 308 l 640 231 z "},"5":{"ha":693,"x_min":42,"x_max":651,"o":"m 78 643 q 304 681 200 681 q 498 635 419 681 q 614 517 576 590 q 651 358 651 444 q 608 180 651 265 q 486 43 565 94 q 303 -3 407 -8 q 144 24 203 1 q 42 86 85 47 l 42 308 l 50 308 q 123 148 79 215 q 215 46 167 81 q 306 10 264 11 q 444 46 386 8 q 531 148 501 83 q 560 288 560 213 q 519 458 560 376 q 400 590 479 539 q 210 642 321 642 q 69 622 139 642 l 53 622 l 203 972 l 428 972 q 571 1006 540 972 l 571 881 l 181 881 l 78 643 z "},"6":{"ha":739,"x_min":56,"x_max":683,"o":"m 375 3 q 222 58 294 3 q 102 224 149 114 q 56 488 56 333 q 104 738 56 628 q 233 910 153 849 q 400 972 313 972 q 476 960 439 972 q 583 892 543 938 q 622 790 624 846 l 504 790 q 517 867 517 825 q 481 944 517 928 q 433 954 460 954 q 301 876 365 954 q 194 684 238 799 q 142 468 151 569 q 281 629 207 575 q 451 690 356 683 q 579 658 526 696 q 658 551 632 619 q 683 400 683 483 q 647 211 683 303 q 541 61 611 119 q 375 3 471 3 m 356 17 q 474 68 424 17 q 552 201 525 119 q 579 369 579 282 q 530 569 579 488 q 388 651 481 651 q 264 597 331 651 q 139 444 197 542 q 138 392 138 426 q 168 198 138 283 q 249 65 199 113 q 356 17 299 17 z "},"7":{"ha":732,"x_min":42,"x_max":690,"o":"m 328 143 l 329 143 q 294 25 294 61 q 300 0 294 7 l 128 0 q 219 133 174 33 l 218 133 l 578 956 l 365 956 q 231 924 296 956 q 119 847 165 893 q 54 756 72 800 l 42 756 l 111 972 l 690 972 l 328 143 z "},"8":{"ha":736,"x_min":40,"x_max":694,"o":"m 453 586 q 630 457 565 528 q 694 279 694 386 q 659 156 694 221 q 554 45 624 90 q 388 0 485 0 q 201 35 279 0 q 81 131 122 71 q 40 265 40 192 q 94 436 40 350 q 253 592 149 522 q 173 678 201 632 q 144 788 144 725 q 215 944 144 890 q 382 997 285 997 q 498 976 443 997 q 587 915 553 954 q 621 822 621 875 q 577 696 621 761 q 453 586 533 631 m 163 810 q 189 742 163 772 q 256 688 215 713 q 368 629 296 664 l 442 592 q 507 669 486 622 q 528 767 528 717 q 514 840 528 808 q 438 926 490 896 q 325 956 385 956 q 211 917 258 956 q 163 810 164 879 m 388 11 q 480 24 428 8 q 573 76 532 39 q 619 172 614 113 q 621 206 621 183 q 586 338 621 282 q 503 431 551 394 q 371 517 454 468 q 265 582 301 556 q 172 458 203 529 q 142 311 142 388 q 172 168 142 235 q 257 58 201 101 q 388 11 313 15 z "},"9":{"ha":711,"x_min":42,"x_max":669,"o":"m 249 15 q 142 83 182 38 q 103 185 101 129 l 221 185 q 208 108 208 150 q 244 31 208 47 q 292 21 265 21 q 424 99 360 21 q 531 291 488 176 q 583 507 574 406 q 444 346 518 400 q 274 285 369 292 q 146 317 199 279 q 67 424 93 356 q 42 575 42 492 q 78 764 42 672 q 184 914 114 856 q 350 972 254 972 q 503 917 431 972 q 623 751 576 861 q 669 488 669 642 q 621 237 669 347 q 492 65 572 126 q 325 3 413 3 q 249 15 286 3 m 332 324 q 457 376 389 321 q 586 531 525 431 q 588 583 588 549 q 557 778 588 693 q 476 911 526 864 q 369 958 425 958 q 251 907 301 958 q 173 774 200 856 q 146 606 146 693 q 194 409 146 490 q 332 324 242 328 z "}," ":{"ha":306,"x_min":0,"x_max":0,"o":""},"A":{"ha":932,"x_min":42,"x_max":890,"o":"m 826 88 q 890 0 856 24 l 697 0 q 708 39 708 14 q 692 128 708 74 l 619 313 l 249 313 l 189 146 q 181 97 181 119 q 190 46 181 67 q 214 0 199 25 l 42 0 q 122 67 89 35 q 171 146 154 99 l 464 972 l 488 972 l 826 88 m 429 810 l 256 329 l 614 329 l 429 810 z "},"B":{"ha":825,"x_min":42,"x_max":769,"o":"m 769 275 q 715 131 769 194 q 574 32 660 67 q 399 0 488 -3 l 42 0 q 75 143 75 32 l 75 829 q 42 972 75 942 l 314 972 q 516 945 435 972 q 615 846 597 918 q 621 799 621 824 q 439 568 621 669 q 680 465 590 544 q 769 275 769 385 m 181 958 l 181 451 l 390 557 q 508 738 508 617 q 481 858 508 808 q 408 931 453 907 q 313 957 364 956 l 181 958 m 397 14 q 523 52 463 14 q 622 156 583 90 q 660 297 660 221 q 592 472 660 407 q 425 560 524 538 l 397 546 l 181 439 l 181 14 l 397 14 z "},"C":{"ha":867,"x_min":56,"x_max":811,"o":"m 199 125 q 91 297 126 203 q 56 489 56 390 q 107 723 56 613 q 249 900 158 833 q 450 967 339 967 q 635 918 539 967 q 726 835 696 888 q 756 721 756 783 l 638 721 q 659 788 651 763 q 667 840 667 814 q 628 908 667 892 q 536 926 583 926 q 333 844 431 926 q 176 633 236 761 q 117 379 117 504 q 207 133 117 225 q 299 72 246 93 q 413 51 353 51 q 595 108 510 51 q 721 274 681 165 l 811 274 q 678 78 774 146 q 467 10 583 10 q 322 40 392 10 q 199 125 251 69 z "},"D":{"ha":815,"x_min":42,"x_max":760,"o":"m 274 972 q 540 906 431 972 q 705 731 650 839 q 760 497 760 622 q 703 256 760 369 q 537 71 647 142 q 274 0 426 0 l 42 0 q 75 143 75 32 l 75 829 q 42 972 75 942 l 274 972 m 272 13 q 479 80 393 13 q 609 256 565 147 q 653 489 653 365 q 610 719 653 611 q 481 892 567 826 q 272 956 394 957 l 181 954 l 181 13 l 272 13 z "},"E":{"ha":788,"x_min":42,"x_max":746,"o":"m 746 101 l 701 0 l 42 0 q 75 143 75 32 l 75 829 q 42 972 75 942 l 643 972 l 643 878 l 181 957 l 181 464 q 289 570 214 531 q 447 610 364 610 q 582 576 525 610 l 533 474 q 449 522 501 503 q 344 540 397 540 q 246 517 289 540 q 181 443 203 493 l 181 15 l 746 101 z "},"F":{"ha":697,"x_min":42,"x_max":642,"o":"m 181 957 l 181 467 q 290 572 215 533 q 446 611 364 611 q 581 576 521 611 l 532 475 q 449 522 500 504 q 346 540 399 540 q 247 517 290 540 q 181 446 203 494 l 181 143 q 214 0 181 32 l 42 0 q 75 143 75 36 l 75 829 q 42 972 75 942 l 642 972 l 642 878 l 181 957 z "},"G":{"ha":893,"x_min":43,"x_max":838,"o":"m 374 557 l 838 557 l 838 542 q 797 304 833 410 q 669 121 760 199 q 540 44 613 72 q 394 15 468 15 q 193 90 276 15 q 80 251 117 160 q 43 443 43 342 q 99 689 43 571 q 251 881 154 807 q 467 954 349 954 q 629 918 549 954 q 723 836 690 892 q 756 721 756 781 l 632 721 q 658 836 658 796 q 622 908 658 889 q 538 929 581 929 q 340 835 439 929 q 176 601 240 742 q 113 331 113 460 q 201 99 113 179 q 363 38 268 38 q 542 98 454 38 q 685 269 631 158 q 733 524 739 379 l 374 463 l 374 557 z "},"H":{"ha":774,"x_min":42,"x_max":732,"o":"m 699 143 q 732 0 699 32 l 560 0 q 593 143 593 36 l 593 490 l 181 490 l 181 143 q 214 0 181 32 l 42 0 q 75 143 75 36 l 75 829 q 42 972 75 938 l 214 972 q 181 829 181 942 l 181 507 l 593 507 l 593 829 q 560 972 593 938 l 732 972 q 699 829 699 942 l 699 143 z "},"I":{"ha":256,"x_min":42,"x_max":214,"o":"m 181 143 q 214 0 181 32 l 42 0 q 75 143 75 36 l 75 829 q 42 972 75 938 l 214 972 q 181 829 181 942 l 181 143 z "},"J":{"ha":622,"x_min":42,"x_max":581,"o":"m 581 972 q 547 829 547 942 l 547 265 q 478 72 547 136 q 307 7 408 7 q 153 45 226 7 q 42 147 79 83 l 139 215 q 185 131 151 176 q 260 53 218 85 q 339 22 303 22 q 414 81 386 22 q 442 267 442 139 l 442 829 q 408 972 442 938 l 581 972 z "},"K":{"ha":832,"x_min":42,"x_max":790,"o":"m 578 0 q 604 53 604 29 q 599 75 604 58 l 353 543 q 181 288 224 381 l 181 143 q 214 0 181 32 l 42 0 q 75 143 75 36 l 75 829 q 42 972 75 938 l 214 972 q 181 829 181 942 l 181 314 q 301 503 225 407 q 488 724 376 599 l 553 797 q 571 878 571 832 q 566 932 571 903 q 560 972 561 961 l 728 972 q 713 950 718 963 q 581 801 688 919 q 418 619 508 724 l 704 75 q 790 0 736 14 l 578 0 z "},"L":{"ha":693,"x_min":42,"x_max":651,"o":"m 651 217 l 582 0 l 42 0 q 75 143 75 32 l 75 829 q 42 972 75 938 l 214 972 q 181 829 181 942 l 181 17 l 374 17 q 491 49 436 17 q 584 128 546 82 q 639 217 622 175 l 651 217 z "},"M":{"ha":850,"x_min":0,"x_max":808,"o":"m 775 143 q 808 0 775 32 l 636 0 q 669 143 669 36 l 669 915 l 424 0 l 400 0 l 94 764 l 94 143 q 117 63 94 96 q 172 0 140 31 l 0 0 q 26 26 4 4 q 63 79 47 49 q 78 143 78 110 l 78 806 l 11 972 l 131 972 l 449 178 l 668 972 l 808 972 q 775 829 775 942 l 775 143 z "},"N":{"ha":710,"x_min":0,"x_max":710,"o":"m 710 972 q 655 909 678 942 q 632 829 632 876 l 632 0 l 615 0 l 94 851 l 94 143 q 117 63 94 96 q 172 0 140 31 l 0 0 q 55 63 32 29 q 78 143 78 96 l 78 879 l 21 972 l 140 972 l 615 197 l 615 829 q 596 902 615 871 q 559 951 576 933 q 538 972 542 968 l 710 972 z "},"O":{"ha":899,"x_min":56,"x_max":843,"o":"m 201 133 q 365 60 274 60 q 566 140 465 60 q 731 347 667 221 q 796 597 796 472 q 742 793 796 707 q 649 886 701 856 q 539 917 597 917 q 335 839 438 917 q 165 638 232 761 q 99 390 99 515 q 201 133 99 240 m 678 86 q 576 29 632 49 q 460 10 519 10 q 315 40 385 10 q 193 125 246 69 q 90 295 125 199 q 56 496 56 392 q 93 704 56 606 q 197 867 131 803 q 317 946 253 919 q 446 972 381 972 q 615 927 535 972 q 749 800 694 882 q 819 646 796 728 q 843 481 843 564 q 799 256 843 361 q 678 86 754 150 z "},"P":{"ha":778,"x_min":42,"x_max":722,"o":"m 181 972 l 301 974 q 599 929 476 974 q 722 754 722 885 q 645 578 722 654 q 425 440 568 501 l 181 336 l 181 143 q 214 0 181 32 l 42 0 q 75 143 75 36 l 75 829 q 42 972 75 942 l 181 972 m 419 454 q 565 560 517 496 q 613 731 613 624 q 513 914 613 868 q 268 960 413 960 l 181 958 l 181 351 l 419 454 z "},"Q":{"ha":899,"x_min":56,"x_max":843,"o":"m 201 133 q 365 60 274 60 q 566 140 465 60 q 731 347 667 221 q 796 597 796 472 q 742 793 796 707 q 649 886 701 856 q 539 917 597 917 q 335 839 438 917 q 165 638 232 761 q 99 390 99 515 q 201 133 99 240 m 371 21 q 433 -35 393 -17 q 519 -53 472 -53 q 625 -33 572 -53 q 710 15 678 -14 l 761 -92 q 626 -125 704 -125 q 467 -85 542 -125 q 358 24 392 -44 q 193 125 260 53 q 90 295 125 199 q 56 496 56 392 q 93 704 56 606 q 197 867 131 803 q 317 946 253 919 q 446 972 381 972 q 615 927 535 972 q 749 800 694 882 q 819 646 796 728 q 843 481 843 564 q 799 256 843 361 q 678 86 754 150 q 461 10 585 10 q 371 21 418 10 z "},"R":{"ha":864,"x_min":42,"x_max":822,"o":"m 610 0 q 636 53 636 29 q 631 75 636 58 l 396 526 l 181 439 l 181 143 q 214 0 181 32 l 42 0 q 75 143 75 36 l 75 829 q 42 972 75 942 l 181 972 q 240 974 217 972 l 343 975 q 588 949 488 975 q 706 846 688 922 q 711 800 711 825 q 652 669 711 726 q 481 563 593 613 l 736 75 q 822 0 768 14 l 610 0 m 181 454 l 425 554 q 566 640 518 593 q 614 750 614 686 q 613 772 614 765 q 488 923 597 888 q 229 958 378 958 l 181 958 l 181 454 z "},"S":{"ha":692,"x_min":42,"x_max":650,"o":"m 42 258 l 47 261 q 201 105 96 163 q 413 47 306 47 q 555 85 496 47 q 628 197 614 124 q 629 215 629 204 q 572 311 629 271 q 400 404 515 351 q 224 497 290 456 q 108 600 157 538 q 60 747 60 663 q 136 916 60 864 q 343 968 213 968 q 449 961 389 968 q 540 969 504 958 q 594 1010 575 979 l 650 721 l 644 718 q 551 821 615 775 q 409 892 488 867 q 258 918 331 918 q 124 881 175 918 q 74 768 72 843 q 108 690 75 725 q 192 626 142 654 q 324 560 242 597 q 492 472 429 510 q 601 378 556 433 q 646 250 646 324 q 566 68 646 126 q 346 10 486 10 q 243 17 303 10 q 152 9 188 19 q 97 -32 117 -1 l 42 258 z "},"T":{"ha":858,"x_min":42,"x_max":817,"o":"m 817 756 l 804 756 q 749 844 788 797 q 656 923 711 890 q 539 956 601 956 l 482 956 l 482 143 q 515 0 482 32 l 343 0 q 376 143 376 36 l 376 956 l 304 956 q 194 922 246 956 q 107 842 143 889 q 54 756 71 796 l 42 756 l 111 972 l 747 972 l 817 756 z "},"U":{"ha":794,"x_min":42,"x_max":753,"o":"m 753 972 q 698 909 721 942 q 675 829 675 876 l 675 293 q 630 136 674 201 q 517 38 586 71 q 372 6 449 6 q 228 38 296 6 q 117 135 160 71 q 75 290 75 200 l 75 829 q 42 972 75 938 l 214 972 q 181 829 181 942 l 181 293 q 212 148 181 207 q 295 60 243 89 q 407 31 347 31 q 526 62 469 31 q 620 153 583 93 q 658 293 657 213 l 658 829 q 639 902 658 871 q 602 951 619 933 q 581 972 585 968 l 753 972 z "},"V":{"ha":924,"x_min":28,"x_max":896,"o":"m 896 972 q 816 907 851 940 q 764 826 781 874 l 456 0 l 431 0 l 92 885 q 28 972 63 949 l 221 972 q 210 933 210 958 q 228 843 210 904 l 492 156 l 746 826 q 756 879 756 854 q 748 924 756 904 q 733 956 740 943 q 724 972 726 968 l 896 972 z "},"W":{"ha":1269,"x_min":28,"x_max":1242,"o":"m 1242 972 q 1169 908 1201 942 q 1122 826 1136 874 l 886 0 l 863 0 l 629 750 l 468 0 l 444 0 l 444 3 l 88 896 q 28 972 61 950 l 221 972 q 210 935 210 958 q 231 836 210 906 l 488 196 l 618 786 l 604 829 l 604 831 l 586 886 q 529 972 564 946 l 722 972 q 708 924 708 958 q 722 836 708 886 l 921 200 l 1104 826 q 1110 867 1110 844 q 1100 919 1110 896 q 1081 955 1090 942 q 1069 972 1072 968 l 1242 972 z "},"X":{"ha":846,"x_min":42,"x_max":804,"o":"m 692 94 q 775 0 735 26 l 582 0 q 588 22 588 7 q 551 133 588 58 l 369 460 l 199 117 q 193 78 193 99 q 203 27 193 49 q 214 0 213 6 l 42 0 q 115 52 76 21 q 179 124 153 83 l 358 479 l 163 829 l 161 829 q 51 972 107 938 l 244 972 q 239 950 239 965 q 267 857 239 919 l 465 500 l 635 826 q 653 896 653 864 q 643 945 653 924 q 632 972 633 967 l 804 972 q 653 826 689 903 l 476 482 l 665 143 l 671 132 l 692 94 z "},"Y":{"ha":892,"x_min":42,"x_max":850,"o":"m 850 972 q 701 826 738 901 l 513 429 l 513 143 q 546 0 513 32 l 374 0 q 407 143 407 36 l 407 407 l 119 889 q 42 972 81 947 l 235 972 q 229 951 229 965 q 275 829 229 913 l 492 432 l 683 826 q 700 893 700 860 q 690 948 700 926 q 678 972 679 969 l 850 972 z "},"Z":{"ha":799,"x_min":42,"x_max":757,"o":"m 410 17 q 544 48 479 17 q 656 126 610 79 q 721 217 703 172 l 733 217 l 664 0 l 42 0 l 628 956 l 381 956 q 246 924 311 956 q 134 847 181 893 q 69 756 88 800 l 57 756 l 126 972 l 757 972 l 172 17 l 410 17 z "},"":{"ha":850,"x_min":0,"x_max":808,"o":"m 775 143 q 808 0 775 32 l 636 0 q 669 143 669 36 l 669 947 q 578 792 611 885 q 528 595 544 700 q 492 315 511 490 q 422 8 472 133 q 301 -181 371 -118 q 154 -243 232 -243 q 6 -182 78 -243 l 11 -174 q 153 -232 79 -232 q 290 -172 225 -232 q 400 6 354 -111 q 361 197 390 106 q 294 366 332 289 q 194 557 257 443 q 94 747 125 682 l 94 143 q 117 63 94 96 q 172 0 140 31 l 0 0 q 26 26 4 4 q 63 79 47 49 q 78 143 78 110 l 78 783 q 11 972 33 885 l 131 972 q 186 817 151 890 q 282 633 221 744 q 399 403 357 501 q 453 193 440 304 q 472 321 463 239 q 512 611 493 503 q 568 815 531 719 q 669 972 606 911 l 808 972 q 775 829 775 942 l 775 143 z "},"a":{"ha":742,"x_min":42,"x_max":700,"o":"m 561 0 l 561 103 q 457 10 522 42 q 317 -21 392 -21 q 183 6 246 -21 q 81 81 119 32 q 42 193 42 129 q 76 302 42 258 q 166 374 111 346 q 339 454 221 403 l 560 549 q 507 674 553 631 q 400 717 461 717 q 316 694 357 717 q 248 630 275 672 q 218 531 221 588 l 101 531 q 199 678 114 625 q 393 731 285 731 q 584 677 504 731 q 667 526 664 624 l 667 143 q 700 0 667 32 l 561 0 m 151 214 q 180 103 151 150 q 256 33 208 57 q 357 8 303 8 q 473 40 418 8 q 561 135 528 72 l 561 521 l 561 533 l 344 440 q 230 385 265 406 q 173 324 194 364 q 151 214 151 285 z "},"b":{"ha":778,"x_min":42,"x_max":722,"o":"m 181 579 q 273 653 214 628 q 400 679 332 679 q 556 642 482 679 q 676 527 629 604 q 722 336 722 450 q 676 147 722 224 q 556 31 629 69 q 400 -7 482 -7 q 273 19 332 -7 q 181 93 214 44 l 181 0 l 42 0 q 75 143 75 32 l 75 829 q 42 972 75 942 l 181 972 l 181 579 m 613 335 q 580 521 613 449 q 494 626 547 593 q 381 660 442 660 q 265 631 319 660 q 181 556 210 603 l 181 114 q 262 38 211 65 q 369 11 313 11 q 488 47 432 11 q 578 155 543 82 q 613 335 613 228 z "},"c":{"ha":765,"x_min":56,"x_max":724,"o":"m 265 35 q 163 99 211 56 q 85 206 115 143 q 56 343 56 269 q 78 468 56 406 q 208 638 117 579 q 408 696 300 696 q 553 667 486 696 q 672 577 626 633 q 724 474 718 521 l 619 508 q 622 542 622 519 q 581 634 622 600 q 475 668 539 668 q 302 606 388 668 q 172 425 217 544 q 142 272 142 343 q 174 142 142 197 q 260 57 206 86 q 376 28 314 28 q 501 58 439 28 q 610 147 563 88 l 689 147 q 563 46 639 82 q 401 10 488 10 q 265 35 332 10 z "},"d":{"ha":779,"x_min":56,"x_max":738,"o":"m 599 0 l 599 94 q 506 19 565 46 q 378 -8 447 -8 q 222 30 296 -8 q 102 145 149 68 q 56 335 56 222 q 102 526 56 449 q 222 640 149 603 q 378 678 296 678 q 507 651 447 678 q 599 576 567 625 l 599 829 q 565 972 599 942 l 704 972 l 704 143 q 738 0 704 32 l 599 0 m 165 335 q 200 155 165 228 q 290 47 235 82 q 408 11 346 11 q 517 39 465 11 q 599 115 568 67 l 599 553 q 515 630 571 600 q 399 660 460 660 q 284 626 338 660 q 198 520 231 593 q 165 335 165 447 z "},"e":{"ha":781,"x_min":56,"x_max":725,"o":"m 150 347 q 144 282 144 318 q 178 140 144 201 q 269 50 213 78 q 375 26 319 26 q 501 57 439 26 q 610 147 563 88 l 689 147 q 563 46 639 82 q 401 10 488 10 q 265 35 332 10 q 163 99 211 56 q 85 206 115 143 q 56 343 56 269 q 78 468 56 406 q 208 638 117 581 q 407 694 299 694 q 553 667 485 694 q 678 557 632 636 q 725 381 725 478 q 724 347 725 358 l 150 347 m 172 425 q 154 364 161 399 l 614 364 q 629 479 629 432 q 606 591 629 546 q 542 656 582 636 q 476 669 514 669 q 362 639 422 669 q 250 552 301 608 q 172 425 199 496 z "},"f":{"ha":564,"x_min":7,"x_max":522,"o":"m 74 696 q 107 847 74 785 q 193 941 140 910 q 306 972 246 972 q 412 945 363 972 q 492 865 461 918 q 522 740 522 813 q 519 694 522 725 l 413 694 q 425 794 425 751 q 394 918 425 874 q 319 963 364 963 q 252 933 285 963 q 199 842 219 903 q 179 694 179 782 l 179 551 l 386 551 l 386 535 l 179 535 l 179 143 q 213 0 179 32 l 40 0 q 74 143 74 36 l 74 535 l 7 535 l 7 551 l 74 551 l 74 696 z "},"g":{"ha":797,"x_min":14,"x_max":756,"o":"m 756 615 q 657 650 693 650 q 608 625 625 650 q 707 508 674 576 q 740 361 740 439 q 703 201 740 279 q 616 88 671 133 q 493 22 561 42 q 398 -4 454 3 q 260 -14 342 -11 q 208 -17 243 -15 q 150 -22 172 -19 q 103 -42 118 -28 q 88 -78 88 -57 q 99 -115 88 -96 q 126 -143 110 -133 q 199 -164 163 -164 q 285 -142 238 -164 q 394 -76 332 -119 q 585 1 506 1 q 672 -39 642 1 q 703 -143 703 -79 q 658 -312 703 -225 q 529 -459 614 -400 q 333 -518 444 -518 q 201 -481 258 -518 q 115 -381 144 -444 q 90 -244 86 -318 l 100 -244 q 153 -400 93 -349 q 317 -451 214 -451 q 478 -401 408 -451 q 584 -275 547 -350 q 621 -133 621 -200 q 600 -56 621 -86 q 540 -26 579 -26 q 401 -86 482 -26 q 364 -114 376 -106 q 238 -199 285 -172 q 144 -225 192 -225 q 81 -211 113 -225 q 31 -174 49 -199 q 14 -122 14 -150 q 49 -48 14 -81 q 147 -8 85 -15 q 204 -4 171 -6 q 251 -3 238 -3 q 316 1 265 -1 q 406 10 367 3 q 267 35 338 7 q 165 99 213 56 q 87 206 117 143 q 57 343 57 269 q 79 468 57 406 q 203 638 117 578 q 394 697 289 697 q 574 649 490 697 l 600 632 q 640 713 617 682 q 708 743 664 743 q 756 735 728 743 l 756 615 m 615 247 q 660 429 660 344 q 631 553 660 500 q 555 636 603 607 q 450 665 507 665 q 294 605 369 665 q 174 425 219 544 q 140 264 140 336 q 167 140 140 193 q 241 59 194 88 q 343 31 288 31 q 493 85 419 31 q 615 247 567 140 z "},"h":{"ha":765,"x_min":42,"x_max":724,"o":"m 551 0 q 585 143 585 36 l 585 460 q 538 626 585 572 q 417 681 490 681 q 288 645 353 681 q 181 553 222 610 l 181 143 q 214 0 181 32 l 42 0 q 75 143 75 36 l 75 829 q 42 972 75 942 l 181 972 l 181 575 q 306 676 228 639 q 463 714 383 714 q 626 652 561 714 q 690 468 690 590 l 690 143 q 724 0 690 32 l 551 0 z "},"i":{"ha":256,"x_min":42,"x_max":214,"o":"m 119 844 q 74 863 93 844 q 56 908 56 882 q 74 953 56 935 q 119 972 93 972 q 165 953 146 972 q 183 908 183 935 q 165 863 183 882 q 119 844 146 844 m 42 0 q 75 143 75 36 l 75 551 q 42 694 75 664 l 181 694 l 181 143 q 214 0 181 32 l 42 0 z "},"j":{"ha":247,"x_min":-181,"x_max":178,"o":"m 114 844 q 69 863 88 844 q 50 908 50 882 q 69 953 50 935 q 114 972 88 972 q 159 953 140 972 q 178 908 178 935 q 159 863 178 882 q 114 844 140 844 m 69 551 q 36 694 69 664 l 175 694 l 175 0 q 139 -106 175 -57 q 47 -185 103 -156 q -62 -215 -8 -215 q -181 -157 -139 -215 l -83 -89 q -44 -164 -68 -135 q 3 -193 -19 -193 q 51 -145 32 -193 q 69 1 69 -97 l 69 551 z "},"k":{"ha":776,"x_min":42,"x_max":735,"o":"m 522 0 q 549 53 549 29 q 543 75 549 58 l 342 457 q 181 285 232 375 l 181 143 q 214 0 181 32 l 42 0 q 75 143 75 36 l 75 829 q 42 972 75 942 l 181 972 l 181 311 q 263 411 213 367 q 392 513 313 456 q 468 571 444 551 q 481 633 481 596 q 475 694 481 665 l 643 694 q 628 672 633 685 q 551 604 594 636 q 442 528 508 572 l 418 511 l 649 75 q 735 0 681 14 l 522 0 z "},"l":{"ha":256,"x_min":42,"x_max":214,"o":"m 42 0 q 75 143 75 36 l 75 829 q 42 972 75 942 l 181 972 l 181 143 q 214 0 181 32 l 42 0 z "},"m":{"ha":1265,"x_min":42,"x_max":1224,"o":"m 1051 0 q 1085 143 1085 36 l 1085 460 q 1038 628 1085 574 q 915 682 990 682 q 788 646 853 682 q 681 553 722 610 q 690 468 690 510 l 690 143 q 724 0 690 32 l 551 0 q 585 143 585 36 l 585 460 q 538 626 585 572 q 417 681 490 681 q 288 645 353 681 q 181 553 222 610 l 181 143 q 214 0 181 32 l 42 0 q 75 143 75 36 l 75 551 q 42 694 75 664 l 181 694 l 181 575 q 306 676 228 639 q 461 714 383 714 q 594 677 536 714 q 675 568 651 640 q 801 674 722 635 q 963 714 881 714 q 1126 652 1061 714 q 1190 468 1190 590 l 1190 143 q 1224 0 1190 32 l 1051 0 z "},"n":{"ha":765,"x_min":42,"x_max":724,"o":"m 551 0 q 585 143 585 36 l 585 460 q 538 626 585 572 q 417 681 490 681 q 288 645 353 681 q 181 553 222 610 l 181 143 q 214 0 181 32 l 42 0 q 75 143 75 36 l 75 551 q 42 694 75 664 l 181 694 l 181 575 q 306 676 228 639 q 463 714 383 714 q 626 652 561 714 q 690 468 690 590 l 690 143 q 724 0 690 32 l 551 0 z "},"o":{"ha":794,"x_min":56,"x_max":739,"o":"m 265 35 q 163 99 211 56 q 85 206 115 143 q 56 343 56 269 q 78 468 56 406 q 201 638 115 578 q 393 697 288 697 q 572 649 489 697 q 697 526 654 601 q 739 363 739 450 q 701 201 739 279 q 578 60 658 111 q 400 10 497 10 q 265 35 332 10 m 268 47 q 340 32 299 32 q 492 90 417 32 q 614 247 568 147 q 656 431 656 342 q 632 554 656 500 q 565 636 608 608 q 461 667 521 667 q 297 604 378 667 q 172 425 217 542 q 143 276 143 351 q 178 135 143 196 q 268 47 213 74 z "},"p":{"ha":778,"x_min":42,"x_max":722,"o":"m 181 579 q 273 653 214 628 q 400 679 332 679 q 556 642 482 679 q 676 527 629 604 q 722 336 722 450 q 676 147 722 224 q 556 31 629 69 q 400 -7 482 -7 q 273 19 332 -7 q 181 93 214 44 l 181 -135 q 214 -278 181 -247 l 42 -278 q 75 -135 75 -243 l 75 551 q 42 694 75 664 l 181 694 l 181 579 m 613 335 q 580 521 613 449 q 494 626 547 593 q 381 660 442 660 q 265 631 319 660 q 181 556 210 603 l 181 114 q 262 38 211 65 q 369 11 313 11 q 488 47 432 11 q 578 155 543 82 q 613 335 613 228 z "},"q":{"ha":778,"x_min":56,"x_max":736,"o":"m 703 -135 q 736 -278 703 -243 l 564 -278 q 597 -135 597 -247 l 597 93 q 505 19 564 44 q 378 -7 446 -7 q 222 31 296 -7 q 102 147 149 69 q 56 336 56 224 q 102 527 56 450 q 222 642 149 604 q 378 679 296 679 q 505 653 446 679 q 597 579 564 628 l 597 694 l 736 694 q 703 551 703 664 l 703 -135 m 165 336 q 200 155 165 228 q 290 47 235 82 q 408 11 346 11 q 516 38 465 11 q 597 114 567 65 l 597 556 q 513 631 568 603 q 399 660 458 660 q 283 626 336 660 q 198 521 231 593 q 165 336 165 449 z "},"r":{"ha":521,"x_min":42,"x_max":451,"o":"m 181 476 q 265 635 203 571 q 407 700 328 700 q 451 694 431 700 l 451 571 q 346 600 394 600 q 230 546 275 600 q 181 406 185 492 l 181 143 q 214 0 181 32 l 42 0 q 75 143 75 36 l 75 551 q 42 694 75 664 l 181 694 l 181 476 z "},"s":{"ha":583,"x_min":42,"x_max":546,"o":"m 236 4 q 172 14 207 6 q 126 19 136 19 q 96 14 108 19 l 42 229 l 47 232 q 120 143 67 182 q 242 83 174 104 q 374 61 311 61 q 483 86 440 61 q 525 163 525 111 q 499 220 525 196 q 436 260 474 244 q 331 297 399 275 q 185 351 242 325 q 88 423 128 376 q 47 540 47 469 q 108 677 47 631 q 276 724 168 724 q 328 721 292 724 l 375 715 q 439 708 414 708 q 481 721 468 708 l 528 526 l 522 524 q 460 599 508 565 q 345 653 411 633 q 218 674 279 674 q 105 647 149 674 q 61 564 61 619 q 112 484 61 513 q 267 425 163 456 q 414 372 358 396 q 508 303 469 347 q 542 190 546 258 q 480 47 536 92 q 299 1 424 1 q 236 4 281 1 z "},"t":{"ha":414,"x_min":0,"x_max":372,"o":"m 172 196 q 201 47 172 92 q 286 3 229 3 q 372 18 322 3 l 372 8 q 247 -8 296 -8 q 115 38 161 -8 q 67 192 68 83 l 67 614 l 0 614 l 0 631 l 67 631 l 67 697 q 33 840 67 810 l 172 840 l 172 631 l 293 631 l 293 614 l 172 614 l 172 196 z "},"u":{"ha":765,"x_min":42,"x_max":724,"o":"m 585 19 l 585 139 q 460 38 538 75 q 303 0 382 0 q 140 62 204 0 q 75 246 75 124 l 75 551 q 42 694 75 664 l 181 694 l 181 254 q 228 88 181 142 q 349 33 275 33 q 478 69 413 33 q 585 161 543 104 l 585 551 q 551 694 585 664 l 690 694 l 690 163 q 724 19 690 51 l 585 19 z "},"v":{"ha":789,"x_min":14,"x_max":775,"o":"m 775 694 q 694 630 731 664 q 638 549 657 596 l 404 0 l 381 0 l 82 615 q 14 694 49 672 l 207 694 q 200 667 200 686 q 228 560 200 631 l 438 132 l 619 549 q 631 606 631 576 q 617 667 631 642 q 603 694 604 692 l 775 694 z "},"w":{"ha":1096,"x_min":14,"x_max":1082,"o":"m 1082 694 q 954 549 978 624 l 758 0 l 735 0 l 529 517 l 344 0 l 321 0 l 81 604 q 14 694 51 669 l 207 694 q 196 657 196 681 q 218 557 196 626 l 379 157 l 519 540 l 494 604 q 428 694 465 669 l 621 694 q 611 658 611 683 q 632 561 611 622 l 793 158 l 936 549 q 944 596 944 574 q 935 647 944 626 q 910 694 926 668 l 1082 694 z "},"x":{"ha":786,"x_min":42,"x_max":744,"o":"m 642 96 q 744 0 696 28 l 551 0 q 554 13 554 6 q 507 114 554 46 l 349 326 l 236 146 q 213 64 213 104 q 225 0 213 38 l 53 0 q 148 65 104 31 q 218 146 192 99 l 339 340 l 179 551 l 175 558 l 142 601 q 42 694 89 667 l 235 694 q 232 682 232 689 q 289 565 232 647 l 422 389 l 522 549 q 547 632 547 590 q 535 694 547 657 l 707 694 q 540 549 585 624 l 432 375 l 607 143 q 617 131 613 135 l 642 96 z "},"y":{"ha":771,"x_min":-167,"x_max":771,"o":"m 771 694 q 690 630 726 664 q 633 549 653 596 l 400 0 q 335 -241 388 -124 q 197 -433 282 -358 q 11 -508 113 -508 q -119 -468 -71 -508 q -167 -371 -167 -428 q -137 -290 -167 -328 q -53 -232 -108 -253 q 86 -190 -4 -214 q 228 -148 176 -168 q 297 -100 281 -128 l 306 -100 q 237 -153 290 -132 q 92 -200 183 -175 q 33 -217 83 -203 q -49 -247 -17 -231 q -99 -287 -82 -264 q -117 -333 -117 -310 q -72 -403 -117 -375 q 51 -425 -26 -431 q 201 -362 131 -419 q 318 -209 271 -304 q 376 0 365 -114 l 99 572 q 50 655 67 629 q 14 694 33 681 l 197 694 q 192 669 192 688 q 215 578 192 638 l 433 132 l 615 549 q 626 606 626 576 q 613 667 626 642 q 599 694 600 692 l 771 694 z "},"z":{"ha":690,"x_min":42,"x_max":649,"o":"m 319 17 q 454 48 389 17 q 566 126 519 79 q 631 217 613 172 l 643 217 l 574 0 l 42 0 l 518 678 l 382 678 q 247 647 313 678 q 135 569 182 615 q 71 478 89 522 l 58 478 l 128 694 l 649 694 l 174 17 l 319 17 z "},"":{"ha":1543,"x_min":56,"x_max":1501,"o":"m 1329 0 q 1363 143 1363 36 l 1363 460 q 1318 621 1363 569 q 1201 672 1274 672 q 1069 628 1132 672 q 958 514 1006 585 l 958 143 q 992 0 958 32 l 819 0 q 853 143 853 36 l 853 349 q 653 94 768 185 q 411 4 539 4 q 265 35 336 4 q 117 153 179 71 q 56 343 56 235 q 78 468 56 403 q 204 638 115 576 q 397 700 293 700 q 572 649 494 700 q 680 531 636 608 q 724 369 724 454 q 697 250 724 307 q 565 108 654 157 q 351 64 475 58 l 351 72 q 606 283 514 93 q 646 457 646 368 q 626 562 646 515 q 565 636 606 608 q 461 667 517 667 q 297 604 378 667 q 172 425 217 542 q 143 276 143 351 q 178 135 143 196 q 268 47 213 74 q 401 15 332 15 q 653 122 532 15 q 853 392 775 228 l 853 551 q 819 694 853 664 l 958 694 l 958 551 q 1250 706 1068 706 q 1406 647 1344 706 q 1468 468 1468 588 l 1468 143 q 1501 0 1468 32 l 1329 0 z "},".":{"ha":211,"x_min":42,"x_max":169,"o":"m 106 1 q 60 20 79 1 q 42 65 42 39 q 60 110 42 92 q 106 129 79 129 q 151 110 132 129 q 169 65 169 92 q 151 20 169 39 q 106 1 132 1 z "},",":{"ha":250,"x_min":42,"x_max":208,"o":"m 208 125 l 54 -147 l 42 -140 l 81 125 l 208 125 z "},":":{"ha":211,"x_min":42,"x_max":169,"o":"m 106 557 q 60 576 79 557 q 42 621 42 594 q 60 666 42 647 q 106 685 79 685 q 151 666 132 685 q 169 621 169 647 q 151 576 169 594 q 106 557 132 557 m 106 1 q 60 20 79 1 q 42 65 42 39 q 60 110 42 92 q 106 129 79 129 q 151 110 132 129 q 169 65 169 92 q 151 20 169 39 q 106 1 132 1 z "},";":{"ha":251,"x_min":42,"x_max":210,"o":"m 146 557 q 101 576 119 557 q 82 621 82 594 q 101 666 82 647 q 146 685 119 685 q 191 666 172 685 q 210 621 210 647 q 191 576 210 594 q 146 557 172 557 m 42 -140 q 81 125 81 51 l 208 125 l 193 97 q 54 -147 89 -94 l 42 -140 z "},"…":{"ha":211,"x_min":42,"x_max":169,"o":"m 106 129 q 151 110 132 129 q 169 65 169 92 q 151 20 169 39 q 106 1 132 1 q 60 20 79 1 q 42 65 42 39 q 60 110 42 92 q 106 129 79 129 z "},"!":{"ha":211,"x_min":42,"x_max":169,"o":"m 133 286 l 78 286 l 50 972 l 161 972 l 133 286 m 106 1 q 60 20 79 1 q 42 65 42 39 q 60 110 42 92 q 106 129 79 129 q 151 110 132 129 q 169 65 169 92 q 151 20 169 39 q 106 1 132 1 z "},"¡":{"ha":211,"x_min":42,"x_max":169,"o":"m 106 631 q 60 649 79 631 q 42 694 42 668 q 60 740 42 721 q 106 758 79 758 q 151 740 132 758 q 169 694 169 721 q 151 649 169 668 q 106 631 132 631 m 161 -212 l 50 -212 l 78 474 l 133 474 l 161 -212 z "},"?":{"ha":717,"x_min":42,"x_max":675,"o":"m 293 214 l 292 289 q 312 379 292 340 q 394 460 332 418 q 568 604 503 533 q 633 749 633 675 q 607 833 633 790 q 535 906 578 882 q 443 931 492 931 q 289 869 365 931 q 161 694 213 808 l 42 694 q 189 901 94 828 q 386 974 283 974 q 517 940 456 974 q 622 840 578 906 q 675 681 675 760 q 617 515 675 593 q 464 379 560 438 l 407 342 q 340 296 358 311 q 313 263 321 281 q 306 214 306 246 l 293 214 m 308 1 q 263 20 282 1 q 244 65 244 39 q 263 110 244 92 q 308 129 282 129 q 353 110 335 129 q 372 65 372 92 q 353 20 372 39 q 308 1 335 1 z "},"¿":{"ha":717,"x_min":42,"x_max":675,"o":"m 408 631 q 363 649 382 631 q 344 694 344 668 q 363 740 344 721 q 408 758 382 758 q 453 740 435 758 q 472 694 472 721 q 453 649 472 668 q 408 631 435 631 m 94 -81 q 42 79 42 0 q 99 244 42 167 q 253 381 157 322 l 310 418 q 377 464 358 449 q 403 497 396 479 q 411 546 411 514 l 424 546 l 425 471 q 405 381 425 419 q 322 300 385 342 q 149 156 214 226 q 83 11 83 85 q 110 -74 83 -31 q 182 -147 139 -122 q 274 -171 225 -171 q 428 -110 351 -171 q 556 65 504 -49 l 675 65 q 528 -141 622 -68 q 331 -214 433 -214 q 200 -180 261 -214 q 94 -81 139 -146 z "},"·":{"ha":211,"x_min":42,"x_max":169,"o":"m 106 318 q 60 337 79 318 q 42 382 42 356 q 60 427 42 408 q 106 446 79 446 q 151 427 132 446 q 169 382 169 408 q 151 337 169 356 q 106 318 132 318 z "},"•":{"ha":347,"x_min":42,"x_max":306,"o":"m 174 250 q 81 289 119 250 q 42 382 42 328 q 81 475 42 436 q 174 514 119 514 q 267 475 228 514 q 306 382 306 436 q 267 289 306 328 q 174 250 228 250 z "},"*":{"ha":469,"x_min":42,"x_max":428,"o":"m 428 861 q 293 797 347 826 q 428 733 347 768 l 386 663 q 264 747 338 700 q 276 599 267 671 l 193 599 q 206 747 203 671 q 83 663 132 700 l 42 733 q 176 797 122 768 q 42 861 122 826 l 83 932 q 206 847 132 894 q 193 996 203 924 l 276 996 q 264 847 267 924 q 386 932 338 894 l 428 861 z "},"#":{"ha":904,"x_min":42,"x_max":863,"o":"m 863 722 l 838 621 l 746 621 l 683 381 l 772 381 l 747 279 l 657 279 l 583 0 l 478 0 l 551 278 l 239 276 l 167 0 l 61 0 l 133 275 l 42 275 l 72 376 l 160 376 l 224 617 l 132 617 l 163 718 l 250 718 l 317 972 l 422 972 l 356 719 l 667 721 l 733 972 l 839 972 l 774 722 l 863 722 m 265 378 l 578 379 l 640 619 l 329 618 l 265 378 z "},"/":{"ha":504,"x_min":42,"x_max":463,"o":"m 147 -225 l 42 -225 l 357 972 l 463 972 l 147 -225 z "},"\\":{"ha":504,"x_min":42,"x_max":463,"o":"m 463 -225 l 357 -225 l 42 972 l 147 972 l 463 -225 z "},"(":{"ha":350,"x_min":42,"x_max":308,"o":"m 301 -171 q 169 -49 228 -133 q 76 153 110 36 q 42 400 42 269 q 103 752 42 594 q 278 972 164 910 l 283 963 q 192 846 222 928 q 154 660 163 764 q 146 400 146 556 q 178 28 146 167 q 308 -162 211 -111 l 301 -171 z "},")":{"ha":350,"x_min":42,"x_max":308,"o":"m 42 -162 q 172 28 139 -111 q 204 400 204 167 q 196 660 204 556 q 158 846 188 764 q 67 963 128 928 l 72 972 q 247 752 186 910 q 308 400 308 594 q 274 153 308 269 q 181 -49 240 36 q 49 -171 122 -133 l 42 -162 z "},"{":{"ha":433,"x_min":42,"x_max":392,"o":"m 336 953 q 277 906 292 944 q 263 799 263 867 l 264 692 q 250 553 264 614 q 192 445 236 493 q 64 374 149 397 q 226 258 186 340 q 265 54 265 175 l 264 -54 q 278 -159 264 -121 q 336 -206 293 -197 l 392 -217 l 392 -225 l 318 -211 q 213 -154 246 -199 q 172 -53 179 -110 q 164 94 164 3 q 158 226 164 176 q 125 315 151 276 q 42 368 99 354 l 42 379 q 126 433 100 393 q 158 524 153 474 q 164 663 164 575 q 172 805 164 750 q 214 903 181 860 q 318 958 247 946 l 392 972 l 392 964 l 336 953 z "},"}":{"ha":433,"x_min":42,"x_max":392,"o":"m 115 958 q 221 901 188 946 q 262 801 254 857 q 269 653 269 744 q 276 521 269 571 q 308 432 282 471 q 392 379 335 393 l 392 368 q 307 314 333 354 q 275 223 281 274 q 269 85 269 172 q 261 -58 269 -3 q 219 -156 253 -112 q 115 -211 186 -199 l 42 -225 l 42 -217 l 97 -206 q 156 -158 142 -197 q 171 -51 171 -119 l 169 56 q 183 194 169 133 q 241 302 197 254 q 369 374 285 350 q 208 490 247 407 q 168 693 168 572 l 169 801 q 155 906 169 868 q 97 953 140 944 l 42 964 l 42 972 l 115 958 z "},"[":{"ha":344,"x_min":42,"x_max":303,"o":"m 303 972 l 303 956 l 147 956 l 147 -185 l 303 -185 l 303 -201 l 42 -201 l 42 972 l 303 972 z "},"]":{"ha":344,"x_min":42,"x_max":303,"o":"m 42 972 l 303 972 l 303 -201 l 42 -201 l 42 -185 l 197 -185 l 197 956 l 42 956 l 42 972 z "},"-":{"ha":486,"x_min":42,"x_max":444,"o":"m 415 388 l 42 388 l 71 460 l 444 460 l 415 388 z "},"­":{"ha":486,"x_min":42,"x_max":444,"o":"m 415 388 l 42 388 l 71 460 l 444 460 l 415 388 z "},"–":{"ha":617,"x_min":42,"x_max":575,"o":"m 547 388 l 42 388 l 69 460 l 575 460 l 547 388 z "},"—":{"ha":1011,"x_min":42,"x_max":969,"o":"m 940 388 l 42 388 l 71 460 l 969 460 l 940 388 z "},"_":{"ha":519,"x_min":42,"x_max":478,"o":"m 456 -122 l 42 -122 l 64 -50 l 478 -50 l 456 -122 z "},"‚":{"ha":250,"x_min":42,"x_max":208,"o":"m 208 125 l 54 -147 l 42 -140 l 81 125 l 208 125 z "},"„":{"ha":250,"x_min":42,"x_max":208,"o":"m 42 -140 l 81 125 l 208 125 l 54 -147 l 42 -140 z "},"“":{"ha":472,"x_min":42,"x_max":431,"o":"m 42 692 l 57 719 q 196 964 161 911 l 208 957 q 169 692 169 765 l 42 692 m 264 692 l 279 719 q 418 964 383 911 l 431 957 q 392 692 392 765 l 264 692 z "},"”":{"ha":472,"x_min":42,"x_max":431,"o":"m 42 696 q 81 961 81 888 l 208 961 l 193 933 q 54 689 89 742 l 42 696 m 264 696 q 303 961 303 888 l 431 961 l 415 933 q 276 689 311 742 l 264 696 z "},"‘":{"ha":250,"x_min":42,"x_max":208,"o":"m 42 692 l 57 719 q 196 964 161 911 l 208 957 q 169 692 169 765 l 42 692 z "},"’":{"ha":250,"x_min":42,"x_max":208,"o":"m 42 699 q 81 964 81 890 l 208 964 l 193 936 q 54 692 89 744 l 42 699 z "},"«":{"ha":635,"x_min":42,"x_max":593,"o":"m 264 676 l 371 676 l 147 392 l 371 107 l 264 107 l 42 392 l 264 676 m 486 676 l 593 676 l 369 392 l 593 107 l 486 107 l 264 392 l 486 676 z "},"»":{"ha":635,"x_min":42,"x_max":593,"o":"m 42 676 l 149 676 l 371 392 l 149 107 l 42 107 l 265 392 l 42 676 m 264 676 l 371 676 l 593 392 l 371 107 l 264 107 l 488 392 l 264 676 z "},"‹":{"ha":413,"x_min":42,"x_max":371,"o":"m 264 676 l 371 676 l 147 392 l 371 107 l 264 107 l 42 392 l 264 676 z "},"›":{"ha":413,"x_min":42,"x_max":371,"o":"m 42 676 l 149 676 l 371 392 l 149 107 l 42 107 l 265 392 l 42 676 z "},"\"":{"ha":397,"x_min":42,"x_max":356,"o":"m 133 632 l 42 632 l 42 972 l 133 972 l 133 632 m 356 632 l 264 632 l 264 972 l 356 972 l 356 632 z "},"'":{"ha":175,"x_min":42,"x_max":133,"o":"m 133 632 l 42 632 l 42 972 l 133 972 l 133 632 z "}," ":{"ha":306,"x_min":0,"x_max":0,"o":""},"$":{"ha":688,"x_min":42,"x_max":646,"o":"m 358 539 q 508 463 447 500 q 607 374 568 426 q 646 254 646 322 q 606 110 646 169 q 499 22 565 51 q 358 -3 433 -7 l 358 -54 l 335 -54 l 335 0 q 155 75 236 11 q 42 247 74 139 l 165 250 q 236 140 192 186 q 335 69 281 93 l 335 432 q 119 564 197 493 q 42 749 42 635 q 83 883 42 831 q 191 959 124 936 q 335 976 258 982 l 335 1035 l 358 1035 l 358 974 q 547 894 468 958 q 633 731 626 829 l 529 728 q 472 840 518 793 q 358 910 425 886 l 358 539 m 56 758 q 96 677 58 713 q 184 617 133 642 q 335 549 235 592 l 335 918 q 249 929 296 929 q 106 885 163 929 q 56 758 50 842 m 358 60 q 443 44 401 44 q 565 86 514 44 q 629 207 617 128 q 631 222 631 213 q 600 293 631 263 q 524 347 569 324 q 397 404 478 371 l 358 421 l 358 60 z "},"€":{"ha":940,"x_min":42,"x_max":899,"o":"m 899 274 q 766 78 861 146 q 554 10 671 10 q 409 40 479 10 q 286 125 339 69 q 151 397 176 240 l 42 397 l 42 421 l 147 421 q 143 489 143 454 q 146 536 143 506 l 42 536 l 42 560 l 147 560 q 215 763 161 669 q 353 911 269 856 q 538 967 438 967 q 722 918 629 967 q 813 835 783 888 q 843 721 843 783 l 725 721 q 747 788 739 763 q 754 840 754 814 q 715 908 754 892 q 624 926 671 926 q 466 876 543 926 q 328 742 389 826 q 235 560 268 658 l 632 560 l 632 536 l 228 536 q 206 421 210 474 l 632 421 l 632 397 l 204 397 q 223 251 201 319 q 294 133 244 183 q 387 72 333 93 q 500 51 440 51 q 683 108 597 51 q 808 274 768 165 l 899 274 z "},"+":{"ha":514,"x_min":42,"x_max":472,"o":"m 451 458 l 472 364 l 306 364 l 306 208 l 204 179 l 204 364 l 63 364 l 42 458 l 204 458 l 204 619 l 306 649 l 306 458 l 451 458 z "},"−":{"ha":514,"x_min":42,"x_max":472,"o":"m 472 364 l 63 364 l 42 458 l 451 458 l 472 364 z "},"×":{"ha":444,"x_min":42,"x_max":403,"o":"m 353 596 l 403 504 l 293 394 l 403 285 l 351 193 l 222 322 l 93 193 l 42 285 l 151 394 l 42 504 l 92 596 l 222 465 l 353 596 z "},"÷":{"ha":633,"x_min":42,"x_max":592,"o":"m 315 590 q 270 609 289 590 q 251 654 251 628 q 270 699 251 681 q 315 718 289 718 q 360 699 342 718 q 379 654 379 681 q 360 609 379 628 q 315 590 342 590 m 592 364 l 63 364 l 42 458 l 571 458 l 592 364 m 315 96 q 270 115 289 96 q 251 160 251 133 q 270 205 251 186 q 315 224 289 224 q 360 205 342 224 q 379 160 379 186 q 360 115 379 133 q 315 96 342 96 z "},"=":{"ha":633,"x_min":42,"x_max":592,"o":"m 592 428 l 63 428 l 42 522 l 571 522 l 592 428 m 592 194 l 63 194 l 42 289 l 571 289 l 592 194 z "},"≠":{"ha":633,"x_min":42,"x_max":592,"o":"m 268 289 l 571 289 l 592 194 l 201 194 l 149 118 l 125 118 l 179 194 l 63 194 l 42 289 l 246 289 l 343 428 l 63 428 l 42 522 l 410 522 l 450 579 l 469 578 l 431 522 l 571 522 l 592 428 l 365 428 l 268 289 z "},">":{"ha":550,"x_min":42,"x_max":508,"o":"m 508 358 l 42 160 l 42 269 l 489 376 l 42 483 l 42 593 l 508 394 l 508 358 z "},"<":{"ha":550,"x_min":42,"x_max":508,"o":"m 508 269 l 508 160 l 42 358 l 42 394 l 508 593 l 508 483 l 61 376 l 508 269 z "},"≥":{"ha":550,"x_min":42,"x_max":508,"o":"m 508 411 l 42 264 l 42 347 l 489 429 l 42 511 l 42 594 l 508 447 l 508 411 m 508 171 l 42 171 l 42 192 l 508 192 l 508 171 z "},"≤":{"ha":550,"x_min":42,"x_max":508,"o":"m 508 347 l 508 264 l 42 411 l 42 447 l 508 594 l 508 511 l 61 429 l 508 347 m 508 171 l 42 171 l 42 192 l 508 192 l 508 171 z "},"±":{"ha":547,"x_min":42,"x_max":506,"o":"m 303 251 l 235 251 l 235 371 l 42 371 l 60 442 l 235 442 l 235 551 l 303 551 l 303 442 l 506 442 l 488 371 l 303 371 l 303 251 m 506 171 l 42 171 l 42 192 l 506 192 l 506 171 z "},"≈":{"ha":599,"x_min":42,"x_max":557,"o":"m 261 440 q 108 519 160 519 q 49 476 71 519 l 42 478 q 93 544 53 514 q 186 575 133 575 q 307 531 247 575 q 458 468 393 468 q 515 484 493 468 q 546 525 538 500 l 557 525 q 489 427 533 464 q 389 390 444 390 q 261 440 328 390 m 261 176 q 108 256 160 256 q 49 213 71 256 l 42 214 q 93 281 53 250 q 186 311 133 311 q 307 267 247 311 q 458 204 393 204 q 515 220 493 204 q 546 261 538 236 l 557 261 q 489 163 533 200 q 389 126 444 126 q 261 176 328 126 z "},"~":{"ha":599,"x_min":42,"x_max":557,"o":"m 261 294 q 108 374 160 374 q 49 331 71 374 l 42 332 q 93 399 53 368 q 186 429 133 429 q 307 385 247 429 q 458 322 393 322 q 515 338 493 322 q 546 379 538 354 l 557 379 q 489 281 533 318 q 389 244 444 244 q 261 294 328 244 z "},"¬":{"ha":485,"x_min":42,"x_max":443,"o":"m 71 410 l 443 410 l 443 249 l 363 218 l 363 338 l 42 338 l 71 410 z "},"^":{"ha":450,"x_min":42,"x_max":408,"o":"m 158 749 l 42 749 l 196 972 l 254 972 l 408 749 l 292 749 l 225 944 l 158 749 z "},"∞":{"ha":1072,"x_min":42,"x_max":1031,"o":"m 1031 463 q 993 327 1031 382 q 900 246 956 272 q 792 219 844 219 q 750 225 775 219 q 638 278 686 243 q 549 361 590 313 q 336 225 453 267 q 265 213 301 213 q 156 242 207 213 q 73 326 104 272 q 42 446 42 379 q 75 584 42 531 q 156 660 108 638 q 251 683 204 682 q 376 659 322 686 q 469 590 431 632 q 558 478 508 547 q 678 596 631 556 q 789 653 726 636 q 840 660 817 660 q 934 635 890 660 q 1004 567 978 611 q 1031 463 1031 522 m 329 292 q 418 343 376 311 q 504 419 460 375 l 486 444 q 378 569 426 525 q 258 631 331 613 q 228 633 239 633 q 142 609 182 633 q 77 542 101 585 q 53 443 53 499 q 97 319 53 371 q 218 267 140 267 q 329 292 267 267 m 788 281 q 839 276 814 276 q 971 327 924 276 q 1018 460 1018 378 q 973 565 1018 522 q 865 607 928 607 q 792 590 829 607 q 715 538 750 571 q 631 449 679 504 l 603 418 q 691 325 649 360 q 788 281 733 290 z "},"∫":{"ha":764,"x_min":42,"x_max":722,"o":"m 167 3 q 42 35 101 3 l 56 46 q 160 21 104 21 q 192 22 181 21 q 296 82 263 29 q 338 210 329 135 q 351 417 347 285 q 367 655 356 561 q 420 830 378 749 q 547 949 463 911 q 628 967 588 967 q 682 958 657 967 q 722 933 707 949 l 722 917 q 619 946 674 946 q 558 933 585 946 q 498 863 518 915 q 472 744 478 811 q 464 563 467 678 q 444 272 460 383 q 364 82 428 161 q 167 3 300 3 z "},"∏":{"ha":775,"x_min":42,"x_max":733,"o":"m 42 972 l 733 972 l 733 881 l 608 881 l 608 -258 l 503 -258 l 503 881 l 258 881 l 258 -258 l 153 -258 l 153 881 l 42 881 l 42 972 z "},"∑":{"ha":551,"x_min":42,"x_max":510,"o":"m 510 -233 l 42 -233 l 42 -197 l 328 369 l 42 936 l 42 972 l 504 972 l 504 954 l 149 954 l 438 369 l 146 -215 l 510 -215 l 510 -233 z "},"√":{"ha":872,"x_min":42,"x_max":831,"o":"m 831 972 l 831 953 l 681 953 l 329 -261 l 226 -261 l 42 206 l 160 206 l 236 -218 l 590 972 l 831 972 z "},"µ":{"ha":822,"x_min":42,"x_max":781,"o":"m 657 158 q 672 105 657 122 q 711 88 688 88 q 748 97 729 88 q 781 122 767 106 l 781 14 q 688 -11 731 -11 q 594 29 631 -11 q 551 139 557 69 q 426 38 504 75 q 269 0 349 0 q 147 31 200 0 l 147 -193 l 42 -193 l 42 244 l 42 246 l 42 694 l 147 694 l 147 254 q 194 88 147 142 q 315 33 242 33 q 444 69 379 33 q 551 161 510 104 l 551 694 l 657 694 l 657 158 z "},"%":{"ha":883,"x_min":42,"x_max":842,"o":"m 110 783 q 131 906 110 856 q 188 981 153 956 q 263 1007 222 1007 q 335 983 300 1007 q 394 907 372 958 q 417 783 417 856 q 394 650 417 706 q 338 566 372 594 q 263 538 303 538 q 189 564 221 538 q 131 649 153 593 q 110 783 110 704 m 315 681 q 361 876 361 789 q 347 952 361 925 q 308 979 332 979 q 255 945 283 979 q 200 843 226 911 q 164 669 164 749 q 194 575 164 599 q 215 568 206 568 q 266 597 239 568 q 315 681 293 625 m 161 0 l 42 0 l 722 972 l 842 972 l 161 0 m 481 233 q 502 356 481 306 q 558 431 524 406 q 633 457 593 457 q 703 435 671 457 q 765 358 742 410 q 788 233 788 307 q 765 99 788 156 q 708 15 743 43 q 633 -14 674 -14 q 557 17 594 -14 q 501 101 522 46 q 481 233 481 157 m 686 131 q 732 326 732 239 q 717 402 732 375 q 679 429 703 429 q 626 395 654 429 q 571 293 597 361 q 533 119 533 193 q 563 28 533 50 q 588 18 575 18 q 637 47 611 18 q 686 131 663 75 z "},"@":{"ha":922,"x_min":90,"x_max":881,"o":"m 881 354 q 851 182 881 264 q 773 50 822 100 q 665 0 724 0 q 538 146 547 0 q 474 97 513 118 q 385 75 435 75 q 251 128 297 75 q 206 263 206 182 q 237 392 206 329 q 328 496 268 456 q 468 536 388 536 q 553 515 521 536 q 600 471 585 493 l 606 488 l 701 488 q 651 317 678 421 q 625 132 625 213 q 689 21 625 21 q 766 60 731 21 q 822 163 801 99 q 843 299 843 228 q 792 501 843 417 q 657 626 740 585 q 479 668 574 668 q 301 626 385 668 q 165 503 217 585 q 113 307 113 422 q 153 139 113 217 q 275 13 193 61 q 474 -35 357 -35 q 569 -26 517 -35 l 574 -118 q 497 -124 539 -124 q 271 -58 363 -124 q 135 110 179 8 q 92 324 90 213 q 152 549 92 454 q 308 694 213 644 q 508 743 403 743 q 692 699 607 743 q 828 568 776 656 q 881 354 881 481 m 539 197 q 593 447 546 304 q 563 481 583 468 q 517 494 542 494 q 501 493 507 494 q 397 442 440 483 q 332 345 354 401 q 310 233 310 289 q 336 132 310 172 q 410 92 363 92 q 484 123 450 92 q 539 197 518 154 z "},"&":{"ha":933,"x_min":42,"x_max":892,"o":"m 892 174 q 858 89 892 126 q 756 -3 825 51 l 753 4 q 806 114 806 49 q 788 184 806 150 q 739 244 771 218 q 609 56 699 128 q 383 -15 519 -15 q 199 29 276 -15 q 81 145 121 74 q 42 296 42 217 q 99 471 42 393 q 261 576 156 549 q 141 651 181 603 q 101 758 101 700 q 138 866 101 814 q 242 950 175 918 q 397 982 310 982 q 521 953 469 982 q 598 878 572 924 q 624 782 624 832 q 592 686 624 724 q 468 629 544 629 q 393 649 426 629 q 349 703 360 669 l 356 707 q 411 661 372 661 q 469 682 439 661 q 524 732 500 703 q 571 846 571 792 q 524 938 571 903 q 399 974 476 974 q 292 938 339 974 q 219 846 244 901 q 193 732 193 790 q 222 628 193 672 q 306 568 250 583 l 447 531 l 447 522 q 381 529 408 529 q 250 493 304 529 q 169 398 196 457 q 143 272 143 339 q 172 138 143 201 q 256 36 200 75 q 389 -3 313 -3 q 603 67 517 -3 q 729 253 689 138 q 579 294 667 294 q 542 293 554 294 q 413 258 468 285 q 338 186 358 232 l 332 186 q 373 305 342 260 q 448 375 404 350 q 575 433 492 400 q 693 508 654 465 q 732 594 732 550 q 722 638 732 618 l 729 642 q 753 578 744 611 q 769 436 769 511 q 756 307 769 367 q 855 256 818 290 q 892 174 892 222 m 350 219 q 465 295 385 268 q 635 322 544 322 q 744 310 694 322 q 760 443 760 378 q 757 497 760 461 q 628 353 743 394 q 539 326 607 346 q 415 285 458 306 q 350 219 371 264 z "},"¶":{"ha":735,"x_min":42,"x_max":693,"o":"m 693 954 l 614 954 l 614 -258 l 508 -258 l 508 954 l 399 954 l 399 -258 l 293 -258 l 293 482 q 107 574 172 503 q 42 733 42 646 q 71 843 42 792 q 157 929 100 894 q 294 972 214 964 l 693 972 l 693 954 z "},"°":{"ha":232,"x_min":42,"x_max":190,"o":"m 117 824 q 64 845 86 824 q 42 897 42 867 q 64 950 42 928 q 117 972 86 972 q 169 950 147 972 q 190 897 190 928 q 169 845 190 867 q 117 824 149 824 m 117 840 q 157 858 140 840 q 174 897 174 875 q 157 938 174 921 q 117 954 140 954 q 77 938 94 954 q 60 897 60 921 q 77 858 60 875 q 117 840 94 840 z "},"|":{"ha":189,"x_min":42,"x_max":147,"o":"m 147 -258 l 42 -258 l 42 972 l 147 972 l 147 -258 z "},"¦":{"ha":189,"x_min":42,"x_max":147,"o":"m 147 508 l 42 508 l 42 972 l 147 972 l 147 508 m 147 -258 l 42 -258 l 42 206 l 147 206 l 147 -258 z "}}}
